<?xml version="1.0" standalone="no"?>
<!DOCTYPE svg PUBLIC "-//W3C//DTD SVG 20010904//EN"
 "http://www.w3.org/TR/2001/REC-SVG-20010904/DTD/svg10.dtd">
<svg version="1.0" xmlns="http://www.w3.org/2000/svg"
 width="15.000000pt" height="15.000000pt" viewBox="0 0 64.000000 64.000000"
 preserveAspectRatio="xMidYMid meet">

<g transform="translate(0.000000,64.000000) scale(0.100000,-0.100000)"
fill="#FF0000" stroke="none">
<path d="M240 600 l0 -40 -70 0 c-40 0 -70 -4 -70 -10 0 -5 7 -10 15 -10 13 0
15 -37 15 -270 l0 -270 190 0 190 0 0 270 c0 233 2 270 15 270 8 0 15 5 15 10
0 6 -30 10 -70 10 l-70 0 0 40 0 40 -80 0 -80 0 0 -40z m140 -10 l0 -30 -60 0
-60 0 0 30 0 30 60 0 60 0 0 -30z m110 -310 l0 -260 -170 0 -170 0 0 260 0
260 170 0 170 0 0 -260z"/>
<path d="M250 270 c0 -107 4 -170 10 -170 6 0 10 63 10 170 0 107 -4 170 -10
170 -6 0 -10 -63 -10 -170z"/>
<path d="M370 270 c0 -107 4 -170 10 -170 6 0 10 63 10 170 0 107 -4 170 -10
170 -6 0 -10 -63 -10 -170z"/>
</g>
</svg>
