<?xml version="1.0" standalone="no"?>
<!DOCTYPE svg PUBLIC "-//W3C//DTD SVG 20010904//EN"
 "http://www.w3.org/TR/2001/REC-SVG-20010904/DTD/svg10.dtd">
<svg version="1.0" xmlns="http://www.w3.org/2000/svg"
 width="225.000000pt" height="225.000000pt" viewBox="0 0 225.000000 225.000000"
 preserveAspectRatio="xMidYMid meet">

<g transform="translate(0.000000,225.000000) scale(0.100000,-0.100000)"
fill="#000000" stroke="none">
<path d="M333 1770 c-66 -40 -64 -17 -61 -671 l3 -591 28 -24 29 -24 682 2
683 3 35 27 c19 15 42 42 51 60 19 40 189 668 195 719 4 37 -16 90 -40 106 -7
4 -42 10 -78 13 l-65 5 -7 53 c-4 40 -14 62 -35 84 -54 59 -49 58 -568 58
l-475 0 0 46 c0 59 -25 111 -64 135 -26 16 -51 19 -156 19 -106 0 -130 -3
-157 -20z m298 -56 c20 -21 24 -38 27 -100 l4 -74 489 0 c526 0 538 -1 573
-51 9 -13 16 -40 16 -61 l0 -38 -581 0 c-518 0 -585 -2 -616 -16 -63 -30 -78
-64 -149 -324 -36 -135 -68 -247 -70 -249 -2 -2 -4 196 -4 441 l0 445 25 27
c23 25 27 26 143 26 114 0 119 -1 143 -26z m1281 -391 c10 -9 18 -23 18 -31 0
-29 -183 -697 -198 -723 -35 -61 -7 -59 -725 -59 -583 0 -657 2 -671 16 -9 8
-16 22 -16 30 0 29 183 700 197 725 36 61 6 58 722 59 595 0 656 -1 673 -17z"/>
</g>
</svg>
