<?xml version="1.0" standalone="no"?>
<!DOCTYPE svg PUBLIC "-//W3C//DTD SVG 20010904//EN"
 "http://www.w3.org/TR/2001/REC-SVG-20010904/DTD/svg10.dtd">
<svg version="1.0" xmlns="http://www.w3.org/2000/svg"
 width="512.000000pt" height="512.000000pt" viewBox="0 0 512.000000 512.000000"
 preserveAspectRatio="xMidYMid meet">

<g transform="translate(0.000000,512.000000) scale(0.100000,-0.100000)"
fill="#000000" stroke="none">
<path d="M565 4311 c-87 -22 -167 -87 -212 -174 -39 -74 -39 -188 -2 -267 19
-40 242 -306 797 -952 l772 -897 2 -720 c3 -709 3 -720 24 -747 39 -53 71 -69
134 -69 l58 0 508 340 c279 187 517 353 529 368 19 27 20 44 23 428 l3 400
771 897 c556 648 778 912 797 952 21 44 26 70 26 130 -1 125 -58 222 -167 281
l-63 34 -1985 2 c-1092 0 -1998 -2 -2015 -6z m3127 -1226 c-433 -504 -792
-928 -799 -943 -9 -19 -12 -133 -13 -402 l-1 -375 -319 -213 -320 -212 0 587
c-1 436 -4 595 -13 615 -7 15 -366 439 -799 943 l-787 915 1919 0 1919 0 -787
-915z"/>
</g>
</svg>
