<?xml version="1.0" standalone="no"?>
<!DOCTYPE svg PUBLIC "-//W3C//DTD SVG 20010904//EN"
 "http://www.w3.org/TR/2001/REC-SVG-20010904/DTD/svg10.dtd">
<svg version="1.0" xmlns="http://www.w3.org/2000/svg"
 width="25.000000pt" height="25.000000pt" viewBox="0 0 200.000000 200.000000"
 preserveAspectRatio="xMidYMid meet">

<g transform="translate(0.000000,200.000000) scale(0.100000,-0.100000)"
fill="#000000" stroke="none">
<path d="M626 1550 c-120 -38 -223 -73 -228 -78 -11 -11 -11 -933 0 -944 9 -9
449 -148 469 -148 9 0 13 20 13 70 l0 70 228 2 227 3 3 203 c2 175 0 202 -13
202 -8 0 -16 -4 -16 -10 -1 -5 -3 -14 -4 -20 -1 -5 -3 -84 -4 -175 l-1 -165
-207 2 -208 3 0 435 0 435 208 3 207 2 1 -165 c1 -91 3 -169 4 -175 1 -5 3
-14 4 -20 0 -5 8 -10 16 -10 13 0 15 27 13 203 l-3 202 -227 3 -228 2 0 70 c0
60 -2 70 -17 69 -10 0 -117 -31 -237 -69z m224 -545 c0 -476 -2 -566 -14 -571
-11 -4 -299 80 -388 115 l-28 11 0 440 0 441 33 12 c100 36 355 115 374 116
l22 1 1 -565z"/>
<path d="M745 1010 c-7 -12 2 -30 16 -30 5 0 9 9 9 20 0 21 -15 27 -25 10z"/>
<path d="M1435 1150 c-4 -6 19 -36 50 -68 l56 -57 -273 -5 c-234 -4 -273 -7
-273 -20 0 -13 39 -16 274 -20 l274 -5 -47 -45 c-60 -57 -72 -78 -51 -87 19
-7 165 132 165 157 0 18 -140 160 -157 160 -7 0 -15 -5 -18 -10z"/>
</g>
</svg>
