<?xml version="1.0" standalone="no"?>
<!DOCTYPE svg PUBLIC "-//W3C//DTD SVG 20010904//EN"
 "http://www.w3.org/TR/2001/REC-SVG-20010904/DTD/svg10.dtd">
<svg version="1.0" xmlns="http://www.w3.org/2000/svg"
 width="439.000000pt" height="569.000000pt" viewBox="0 0 439.000000 569.000000"
 preserveAspectRatio="xMidYMid meet">

<g transform="translate(0.000000,569.000000) scale(0.100000,-0.100000)"
fill="#000000" stroke="none">
<path d="M1520 5425 c-147 -29 -368 -126 -534 -235 -68 -44 -78 -56 -131 -145
-68 -116 -126 -178 -200 -211 -49 -23 -65 -25 -158 -22 l-104 3 -59 -39 c-86
-57 -144 -105 -144 -122 0 -25 105 -219 171 -316 35 -51 85 -115 111 -141 53
-56 59 -56 146 -1 95 61 141 111 158 173 39 136 120 207 259 226 100 13 268
-43 369 -124 21 -17 48 -31 60 -31 16 0 33 -19 64 -70 24 -38 54 -77 66 -87
13 -10 149 -245 304 -523 154 -278 325 -587 381 -687 84 -151 100 -186 95
-211 -13 -67 287 -716 459 -992 46 -74 150 -241 232 -370 313 -498 458 -768
555 -1035 29 -77 58 -149 65 -161 17 -27 93 -48 171 -49 51 0 73 6 138 39 97
50 148 98 174 168 43 116 47 106 -82 271 -249 319 -359 508 -653 1127 -197
413 -289 580 -458 835 -169 253 -244 349 -278 355 -30 5 -59 53 -472 765 -51
88 -134 232 -185 320 -52 88 -109 187 -128 220 -19 33 -36 72 -38 87 -2 15
-20 60 -39 99 -27 53 -35 78 -30 100 4 17 -3 64 -15 116 -27 106 -32 259 -10
273 24 15 138 23 234 17 98 -7 202 -32 421 -104 141 -46 204 -55 278 -40 38 8
51 32 22 43 -32 13 -12 24 43 24 56 0 82 11 82 35 0 14 -283 165 -440 236
-255 114 -416 167 -565 189 -95 13 -256 11 -335 -5z"/>
</g>
</svg>
