<?xml version="1.0" standalone="no"?>
<!DOCTYPE svg PUBLIC "-//W3C//DTD SVG 20010904//EN"
 "http://www.w3.org/TR/2001/REC-SVG-20010904/DTD/svg10.dtd">
<svg version="1.0" xmlns="http://www.w3.org/2000/svg"
 width="225.000000pt" height="225.000000pt" viewBox="0 0 225.000000 225.000000"
 preserveAspectRatio="xMidYMid meet">

<g transform="translate(0.000000,225.000000) scale(0.100000,-0.100000)"
fill="#000000" stroke="none">
<path d="M526 2045 c-49 -17 -103 -68 -127 -120 -18 -38 -19 -81 -19 -800 0
-714 2 -762 19 -800 23 -51 89 -111 138 -124 53 -15 1124 -15 1177 0 50 14
121 80 141 132 12 33 15 72 13 177 l-3 135 -29 3 c-16 2 -34 -1 -40 -8 -6 -6
-13 -65 -16 -145 -5 -125 -7 -135 -30 -160 -53 -57 -34 -55 -625 -55 -591 0
-572 -2 -625 55 l-25 27 0 763 0 763 25 27 c52 56 46 55 495 55 l415 0 0 -172
c0 -95 5 -180 10 -188 7 -12 42 -16 185 -18 l175 -3 0 -70 c0 -81 11 -109 43
-109 41 0 47 17 47 140 l0 115 -198 198 -197 197 -455 0 c-361 -1 -463 -4
-494 -15z m1184 -352 c0 -2 -47 -3 -105 -3 l-105 0 0 107 0 108 105 -105 c58
-58 105 -106 105 -107z"/>
<path d="M1512 1388 c-24 -24 -10 -45 93 -148 58 -58 105 -108 105 -112 0 -5
-168 -8 -373 -8 -277 0 -376 -3 -385 -12 -18 -18 -14 -56 7 -68 13 -6 153 -10
387 -10 l368 0 -107 -109 c-59 -59 -107 -115 -107 -124 0 -21 27 -47 48 -47
10 0 86 69 170 153 115 115 152 158 152 177 0 19 -36 61 -148 173 -150 149
-178 167 -210 135z"/>
</g>
</svg>
