<?xml version="1.0" standalone="no"?>
<!DOCTYPE svg PUBLIC "-//W3C//DTD SVG 20010904//EN"
 "http://www.w3.org/TR/2001/REC-SVG-20010904/DTD/svg10.dtd">
<svg version="1.0" xmlns="http://www.w3.org/2000/svg"
 width="204.000000pt" height="247.000000pt" viewBox="0 0 204.000000 247.000000"
 preserveAspectRatio="xMidYMid meet">

<g transform="translate(0.000000,247.000000) scale(0.100000,-0.100000)"
fill="#000000" stroke="none">
<path d="M902 2460 c-195 -36 -346 -148 -431 -322 -56 -114 -72 -182 -80 -333
l-6 -130 -55 -7 c-127 -18 -254 -117 -302 -236 l-23 -57 0 -540 0 -540 31 -66
c44 -93 93 -142 182 -187 l76 -37 726 0 726 0 76 37 c89 45 138 94 182 187
l31 66 0 540 0 540 -23 57 c-48 119 -175 218 -302 236 l-55 7 -6 130 c-8 152
-24 219 -81 335 -73 150 -208 262 -368 306 -70 18 -229 26 -298 14z m260 -285
c26 -9 66 -34 90 -55 84 -73 125 -184 130 -350 l3 -95 -363 -3 c-309 -2 -363
0 -368 12 -10 26 15 223 35 281 40 113 130 199 235 224 56 14 181 6 238 -14z
m578 -747 c18 -13 43 -36 54 -51 21 -28 21 -39 23 -530 l3 -502 -23 -40 c-12
-22 -40 -50 -62 -62 l-40 -23 -675 0 -675 0 -40 23 c-22 12 -50 40 -62 62
l-23 40 3 502 c2 491 2 502 23 530 11 15 36 38 54 51 l33 22 687 0 687 0 33
-22z"/>
<path d="M968 1101 c-47 -15 -90 -53 -109 -95 -35 -76 -20 -153 41 -211 30
-28 30 -30 30 -137 0 -146 16 -178 90 -178 74 0 90 32 90 178 0 107 0 109 30
137 61 58 76 135 41 212 -34 73 -137 118 -213 94z"/>
</g>
</svg>
