<?xml version="1.0" standalone="no"?>
<!DOCTYPE svg PUBLIC "-//W3C//DTD SVG 20010904//EN"
 "http://www.w3.org/TR/2001/REC-SVG-20010904/DTD/svg10.dtd">
<svg version="1.0" xmlns="http://www.w3.org/2000/svg"
 width="500.000000pt" height="500.000000pt" viewBox="0 0 500.000000 500.000000"
 preserveAspectRatio="xMidYMid meet">

<g transform="translate(0.000000,500.000000) scale(0.100000,-0.100000)"
fill="#000000" stroke="none">
<path d="M2240 4356 c-199 -31 -365 -80 -528 -157 -134 -63 -204 -105 -337
-205 -584 -436 -853 -1156 -705 -1886 110 -539 484 -1023 985 -1275 286 -145
533 -203 857 -203 305 0 555 58 821 191 368 183 652 466 837 833 133 264 199
540 200 834 1 445 -131 825 -407 1180 -266 341 -678 590 -1114 673 -143 27
-476 35 -609 15z m500 -151 c272 -39 532 -143 763 -305 117 -82 313 -278 395
-395 280 -398 382 -880 286 -1355 -40 -197 -147 -448 -263 -617 -63 -92 -220
-277 -243 -285 -11 -5 -13 26 -14 156 0 134 -4 177 -24 256 -78 320 -240 551
-510 728 -265 175 -605 231 -913 153 -281 -72 -530 -247 -687 -484 -141 -213
-211 -469 -196 -714 8 -127 7 -127 -110 6 -244 275 -390 600 -435 965 -16 130
-6 380 20 507 51 252 148 478 293 684 82 117 278 312 398 397 221 156 521 275
775 307 113 14 351 12 465 -4z m12 -1813 c233 -63 416 -186 559 -375 186 -247
249 -546 178 -847 -20 -86 -23 -92 -62 -118 -133 -90 -329 -174 -524 -224
l-128 -33 -265 0 c-294 0 -340 6 -538 71 -114 37 -356 149 -408 189 -28 21
-35 37 -54 117 -79 336 11 670 248 929 141 153 319 253 532 300 116 26 350 21
462 -9z"/>
<path d="M2400 3739 c-30 -5 -92 -27 -137 -49 -142 -70 -244 -192 -288 -343
-20 -68 -22 -200 -4 -273 42 -175 181 -325 357 -386 92 -32 258 -31 346 1 230
83 367 277 367 516 0 153 -52 276 -159 383 -128 126 -299 180 -482 151z m166
-150 c126 -23 237 -109 292 -226 24 -51 27 -70 27 -158 0 -92 -3 -106 -32
-167 -40 -85 -106 -151 -191 -191 -61 -29 -76 -32 -162 -32 -86 0 -101 3 -162
32 -85 40 -151 106 -191 191 -29 61 -32 75 -32 167 0 88 3 107 27 157 32 68
103 147 165 183 38 23 137 52 184 54 8 1 42 -4 75 -10z"/>
</g>
</svg>
