<?xml version="1.0" standalone="no"?>
<!DOCTYPE svg PUBLIC "-//W3C//DTD SVG 20010904//EN"
 "http://www.w3.org/TR/2001/REC-SVG-20010904/DTD/svg10.dtd">
<svg version="1.0" xmlns="http://www.w3.org/2000/svg"
 width="486.000000pt" height="513.000000pt" viewBox="0 0 486.000000 513.000000"
 preserveAspectRatio="xMidYMid meet">

<g transform="translate(0.000000,513.000000) scale(0.100000,-0.100000)"
fill="#000000" stroke="none">
<path d="M1521 4193 c-33 -7 -116 -92 -132 -136 -7 -20 -17 -37 -22 -37 -4 0
-14 -15 -22 -33 -13 -32 -11 -69 5 -92 4 -5 20 -44 35 -85 22 -57 41 -87 80
-127 l52 -51 -39 -18 c-53 -24 -103 -75 -122 -126 -14 -38 -36 -170 -66 -403
-5 -38 -18 -128 -29 -200 -22 -148 -20 -171 18 -213 l28 -30 7 -201 7 -202
-70 -97 c-39 -53 -116 -158 -171 -232 -82 -111 -100 -141 -100 -170 0 -84 102
-157 182 -131 36 12 55 35 223 266 28 39 84 115 125 169 l73 100 15 160 c8 89
17 163 19 166 3 3 14 -6 25 -20 11 -14 48 -55 83 -91 l64 -66 40 -229 c22
-126 43 -249 46 -274 14 -91 45 -119 126 -120 71 0 118 29 136 84 11 33 9 63
-19 233 -21 132 -34 190 -40 177 -5 -12 -7 -3 -4 26 4 60 -19 196 -40 229 -27
42 -145 202 -181 245 l-33 39 21 33 c17 29 20 48 18 149 -1 64 1 119 5 122 3
4 6 15 6 25 0 10 3 18 6 18 4 0 78 -7 165 -16 145 -14 162 -14 191 0 25 13 70
16 235 16 l203 0 0 -569 c0 -459 3 -571 13 -580 9 -7 179 -11 549 -13 l536 -3
26 -24 c47 -44 25 -103 -47 -130 -19 -7 -192 -8 -560 -2 -367 7 -536 6 -544
-1 -9 -7 -13 -43 -13 -114 0 -91 2 -104 19 -114 12 -6 197 -10 519 -9 412 0
503 2 518 14 15 11 17 17 8 32 -11 17 -41 18 -508 21 l-496 2 0 56 0 57 525
-8 526 -7 52 26 c63 30 87 67 87 131 0 40 -5 52 -32 79 -18 18 -41 37 -51 42
-15 9 -16 15 -7 38 17 46 13 113 -7 118 -32 8 -43 -3 -43 -41 0 -24 -8 -49
-21 -65 l-20 -26 -164 0 -164 0 -20 26 c-17 22 -21 41 -21 100 l0 74 177 2
177 3 7 33 6 32 -181 0 -181 1 24 19 c21 18 39 20 173 20 82 0 157 -4 166 -9
11 -5 26 -3 45 9 l27 17 -21 19 c-17 15 -40 20 -123 22 l-102 4 4 127 c5 147
-6 186 -63 221 -29 18 -49 20 -201 20 -150 0 -173 -2 -201 -20 -53 -32 -63
-64 -63 -201 0 -113 2 -125 23 -148 12 -14 14 -19 5 -12 -15 11 -21 11 -35 0
-11 -10 -14 -10 -9 -1 5 9 -11 12 -71 12 -89 0 -118 -12 -150 -59 l-23 -34 0
402 c0 341 -2 406 -15 431 -9 17 -17 31 -18 32 -1 1 -94 4 -207 7 l-205 6 -3
24 c-5 30 -29 69 -51 80 -9 5 -40 12 -70 16 -44 6 -52 5 -45 -6 6 -11 5 -12
-7 -3 -11 9 -180 34 -229 34 -6 0 -10 22 -10 48 0 131 -97 290 -197 323 l-33
10 31 26 c119 100 143 311 52 445 -44 64 -132 98 -212 81z m137 -95 c44 -42
62 -91 62 -172 0 -127 -66 -236 -142 -236 -40 0 -110 70 -127 127 -7 21 -22
60 -34 87 -20 45 -20 49 -4 61 10 7 24 33 33 57 36 107 139 143 212 76z m15
-533 c74 -31 136 -147 137 -255 0 -36 4 -70 8 -77 15 -23 78 -42 162 -47 207
-12 250 -23 250 -61 0 -16 -39 -47 -50 -40 -4 3 -54 7 -111 11 -57 3 -135 9
-174 14 -58 7 -72 6 -82 -7 -8 -10 -12 -62 -12 -159 0 -120 -3 -148 -17 -174
-10 -16 -26 -33 -36 -36 -25 -8 -24 -51 2 -59 20 -6 78 -76 178 -216 42 -58
63 -100 68 -128 4 -26 14 -46 25 -52 23 -12 25 -29 4 -29 -20 0 -19 -17 1 -37
11 -11 14 -28 11 -57 -2 -23 6 -103 19 -179 28 -160 30 -210 9 -227 -18 -15
-86 -23 -102 -12 -13 8 -76 317 -93 456 -5 38 -12 83 -16 99 -7 33 -203 252
-234 262 -30 9 -59 -12 -65 -48 -3 -17 -11 -100 -19 -182 l-13 -151 -53 -74
c-30 -41 -90 -124 -135 -185 -45 -60 -101 -137 -125 -170 -50 -69 -57 -75 -87
-75 -24 0 -83 45 -83 64 0 6 50 79 110 161 61 83 137 187 170 232 l60 81 0 95
c0 195 -13 397 -25 397 -7 0 -20 9 -31 21 -18 20 -17 27 30 361 27 187 53 356
59 374 12 39 70 97 112 112 44 15 108 14 148 -3z m1762 -945 c18 -20 17 -20
-176 -20 l-194 1 24 19 c21 18 39 20 176 20 139 0 153 -2 170 -20z m35 -155
c0 -96 -9 -111 -77 -131 -54 -16 -101 -50 -116 -84 -6 -12 -8 -13 -13 -1 -18
40 -62 71 -119 86 -33 8 -66 23 -72 32 -8 10 -13 47 -13 90 l0 72 88 3 c48 2
140 2 205 0 l117 -3 0 -64z m-427 -100 c-3 -9 -8 -14 -10 -11 -3 3 -2 9 2 15
9 16 15 13 8 -4z m144 -117 c16 -17 8 -18 -175 -18 -180 0 -213 5 -179 27 19
13 123 18 234 13 79 -4 106 -9 120 -22z m-157 -85 l175 2 3 -76 c2 -64 0 -79
-18 -102 l-21 -27 -163 0 c-184 0 -193 3 -205 77 -11 68 -3 118 22 129 12 5
24 6 27 2 3 -4 84 -7 180 -5z m-257 -68 c-3 -9 -8 -14 -10 -11 -3 3 -2 9 2 15
9 16 15 13 8 -4z m-41 -87 c-9 -9 -15 -9 -24 1 -11 10 -10 11 5 6 10 -5 17 -2
17 6 0 7 3 9 7 6 4 -4 1 -13 -5 -19z m22 -33 c3 -8 1 -15 -4 -15 -6 0 -10 7
-10 15 0 8 2 15 4 15 2 0 6 -7 10 -15z m526 0 c0 -8 -4 -15 -10 -15 -5 0 -10
7 -10 15 0 8 5 15 10 15 6 0 10 -7 10 -15z"/>
<path d="M3741 2238 c-29 -31 -36 -59 -18 -72 8 -7 16 -20 18 -31 3 -13 14
-21 32 -23 34 -4 35 11 2 26 -19 9 -25 19 -25 42 0 18 4 29 10 25 6 -3 10 1
10 9 0 9 5 16 10 16 6 0 10 7 10 15 0 22 -26 18 -49 -7z"/>
<path d="M3770 2195 c-15 -18 -6 -45 15 -45 10 0 15 10 15 30 0 33 -11 38 -30
15z"/>
</g>
</svg>
