<?xml version="1.0" standalone="no"?>
<!DOCTYPE svg PUBLIC "-//W3C//DTD SVG 20010904//EN"
 "http://www.w3.org/TR/2001/REC-SVG-20010904/DTD/svg10.dtd">
<svg version="1.0" xmlns="http://www.w3.org/2000/svg"
 width="500.000000pt" height="500.000000pt" viewBox="0 0 500.000000 500.000000"
 preserveAspectRatio="xMidYMid meet">

<g transform="translate(0.000000,500.000000) scale(0.100000,-0.100000)"
fill="#000000" stroke="none">
<path d="M2403 4985 c-80 -22 -151 -62 -205 -116 l-49 -49 -157 0 c-144 0
-161 -2 -208 -24 -52 -24 -110 -84 -120 -123 l-6 -22 -361 -3 c-360 -3 -362
-3 -407 -27 -70 -37 -106 -68 -139 -120 -65 -101 -62 40 -59 -2202 l3 -2034
26 -56 c37 -79 90 -133 167 -171 l67 -33 1545 0 1545 0 67 33 c77 38 130 92
167 171 l26 56 3 2015 c2 1268 -1 2038 -7 2078 -18 117 -81 205 -186 260 l-50
27 -360 3 -360 3 -30 52 c-20 35 -46 61 -79 82 -49 30 -50 30 -220 33 l-170 3
-49 50 c-55 56 -120 92 -204 114 -70 18 -121 18 -190 0z m212 -173 c22 -11 65
-47 96 -81 l56 -61 177 0 c256 0 256 0 256 -226 0 -159 -8 -191 -55 -212 -33
-15 -1250 -17 -1289 -2 -46 17 -56 55 -56 214 0 226 0 226 256 226 l177 0 56
61 c80 88 129 111 226 105 35 -2 77 -12 100 -24z m-975 -412 l0 -90 -265 0
c-278 0 -313 -5 -329 -45 -3 -9 -6 -882 -6 -1939 l0 -1923 21 -27 20 -26 1419
0 1419 0 20 26 21 27 0 1923 c0 1057 -3 1930 -6 1939 -16 40 -51 45 -329 45
l-265 0 0 90 0 90 330 0 c354 0 359 -1 407 -52 56 -60 53 79 53 -2115 l0
-2017 -21 -44 c-13 -26 -38 -54 -62 -70 l-41 -27 -1514 -3 c-1474 -2 -1515 -2
-1557 17 -29 13 -53 34 -72 62 l-28 43 -3 2033 c-2 1985 -2 2034 17 2071 20
38 51 71 86 90 13 8 129 11 353 12 l332 0 0 -90z m99 -281 c74 -59 74 -59 761
-59 687 0 687 0 761 59 l38 31 250 0 251 0 0 -1820 0 -1820 -1300 0 -1300 0 0
1820 0 1820 251 0 250 0 38 -31z"/>
<path d="M2445 4625 c-49 -49 -16 -125 55 -125 44 0 80 35 80 77 0 34 -42 73
-80 73 -19 0 -40 -9 -55 -25z"/>
<path d="M1495 3415 c-48 -47 -18 -118 55 -130 54 -9 118 3 141 26 26 26 25
83 -1 109 -16 16 -33 20 -95 20 -67 0 -79 -3 -100 -25z"/>
<path d="M1929 3421 c-31 -25 -32 -83 -1 -114 l23 -22 765 0 766 0 24 28 c31
36 31 71 -1 102 l-24 25 -764 0 c-732 0 -766 -1 -788 -19z"/>
<path d="M1495 2985 c-27 -26 -31 -51 -14 -88 15 -34 49 -47 118 -47 77 0 111
24 111 80 0 58 -33 80 -122 80 -60 0 -72 -3 -93 -25z"/>
<path d="M1942 3003 c-21 -8 -43 -61 -36 -88 3 -14 18 -34 31 -45 25 -20 43
-20 774 -20 527 0 755 3 772 11 49 22 61 86 22 124 l-24 25 -763 -1 c-420 0
-769 -3 -776 -6z"/>
<path d="M1514 2570 c-32 -13 -49 -63 -35 -99 16 -37 48 -51 120 -51 77 0 111
24 111 80 0 57 -34 80 -114 79 -33 0 -70 -4 -82 -9z"/>
<path d="M1944 2568 c-22 -10 -44 -47 -44 -74 0 -9 13 -29 29 -45 l29 -29 751
0 c536 0 757 3 775 11 36 17 52 61 36 100 -7 17 -24 35 -37 40 -35 13 -1512
11 -1539 -3z"/>
<path d="M1523 2140 c-55 -23 -67 -102 -20 -135 34 -24 148 -20 181 6 32 25
35 75 7 110 -15 19 -30 23 -82 26 -35 1 -74 -1 -86 -7z"/>
<path d="M1950 2137 c-31 -16 -53 -60 -45 -87 4 -12 16 -30 28 -40 19 -19 36
-20 218 -20 193 0 199 1 225 23 35 30 37 79 5 110 -20 21 -31 22 -214 25 -142
2 -198 -1 -217 -11z"/>
<path d="M2935 2140 c-245 -43 -425 -255 -425 -500 0 -142 43 -249 142 -355
97 -105 215 -155 364 -155 205 0 366 99 458 282 138 272 -8 618 -298 707 -77
24 -176 32 -241 21z m3 -291 l-3 -131 -125 1 c-68 1 -126 4 -129 6 -11 11 35
100 75 144 39 43 146 111 176 111 5 0 7 -59 6 -131z m242 101 c65 -33 118 -89
152 -158 30 -60 33 -75 33 -157 0 -78 -4 -97 -28 -146 -15 -32 -33 -62 -40
-68 -10 -8 -34 18 -105 114 l-92 124 0 161 0 161 23 -7 c12 -3 38 -15 57 -24z
m-111 -512 c102 -136 102 -131 4 -149 -63 -12 -153 0 -208 28 -82 42 -167 141
-181 211 l-6 32 150 0 150 0 91 -122z"/>
<path d="M1533 1713 c-29 -6 -63 -49 -63 -80 0 -13 11 -35 25 -48 21 -22 33
-25 100 -25 62 0 79 4 95 20 22 22 26 69 10 100 -17 31 -97 47 -167 33z"/>
<path d="M1964 1714 c-57 -13 -79 -99 -35 -135 21 -17 42 -19 186 -19 l164 0
20 26 c28 35 26 67 -3 101 l-24 28 -144 2 c-78 0 -153 -1 -164 -3z"/>
<path d="M1495 1255 c-30 -30 -32 -64 -4 -99 19 -24 26 -26 100 -26 93 0 119
16 119 75 0 56 -29 75 -117 75 -65 0 -77 -3 -98 -25z"/>
<path d="M1929 1261 c-29 -23 -31 -81 -4 -111 17 -19 29 -20 221 -20 111 0
210 3 219 6 8 4 22 19 30 34 17 33 4 84 -25 100 -11 6 -107 10 -218 10 -180 0
-202 -2 -223 -19z"/>
</g>
</svg>
