<?xml version="1.0" standalone="no"?>
<!DOCTYPE svg PUBLIC "-//W3C//DTD SVG 20010904//EN"
 "http://www.w3.org/TR/2001/REC-SVG-20010904/DTD/svg10.dtd">
<svg version="1.0" xmlns="http://www.w3.org/2000/svg"
 width="200.000000pt" height="200.000000pt" viewBox="0 0 200.000000 200.000000"
 preserveAspectRatio="xMidYMid meet">

<g transform="translate(0.000000,200.000000) scale(0.100000,-0.100000)"
fill="#000000" stroke="none">
<path d="M880 1650 c-131 -16 -238 -60 -259 -106 -10 -23 -14 -24 -114 -24
-122 0 -137 -9 -137 -81 0 -42 -5 -50 -90 -142 l-90 -97 0 -60 0 -60 55 0 55
0 2 -367 3 -368 675 -3 c371 -1 685 0 698 3 l22 5 0 365 0 365 55 0 55 0 0 60
0 60 -90 97 c-86 94 -90 99 -90 144 0 70 -15 79 -139 79 -97 0 -102 1 -112 24
-15 32 -90 72 -170 90 -82 19 -245 27 -329 16z m-11 -79 c20 -13 5 -30 -22
-24 -19 4 -18 2 6 -12 30 -17 34 -36 13 -54 -21 -18 -70 -10 -74 12 -3 15 1
17 25 12 l28 -6 -27 16 c-16 9 -28 21 -28 28 0 31 47 48 79 28z m51 -9 c0 -10
3 -21 6 -25 11 -11 34 5 34 24 0 10 7 19 15 19 12 0 15 -13 15 -55 0 -42 -3
-55 -15 -55 -8 0 -15 9 -15 20 0 13 -7 20 -20 20 -13 0 -20 -7 -20 -20 0 -11
-7 -20 -15 -20 -12 0 -15 13 -15 55 0 42 3 55 15 55 8 0 15 -8 15 -18z m174
-1 c10 -11 16 -31 14 -47 -6 -59 -108 -56 -108 2 0 56 59 84 94 45z m104 10
c8 -5 12 -21 10 -37 -2 -21 -9 -30 -25 -32 -13 -2 -23 -10 -23 -18 0 -8 -9
-14 -20 -14 -17 0 -20 7 -20 48 0 27 3 52 7 55 9 10 55 8 71 -2z m-497 -208
c-11 -27 -29 -70 -40 -96 -15 -34 -21 -70 -21 -118 l0 -69 113 0 112 0 1 78
c0 42 6 116 13 165 l13 87 93 0 c111 0 103 14 112 -187 l6 -143 114 0 113 0 0
64 c0 48 -9 88 -35 160 -19 53 -35 99 -35 101 0 3 42 5 93 4 l92 0 63 -98 c60
-95 62 -100 62 -164 l0 -67 50 0 50 0 0 -355 0 -355 -670 0 -670 0 0 355 0
355 33 0 32 0 -3 61 c-4 66 -5 64 106 222 l34 47 94 0 94 0 -19 -47z"/>
<path d="M1034 1535 c-4 -9 -2 -21 4 -27 15 -15 44 -1 40 19 -4 23 -36 29 -44
8z"/>
<path d="M1150 1540 c0 -5 7 -10 15 -10 8 0 15 5 15 10 0 6 -7 10 -15 10 -8 0
-15 -4 -15 -10z"/>
<path d="M377 1043 c-4 -3 -7 -145 -7 -315 l0 -308 170 0 c170 0 170 0 170 23
0 62 1 556 0 580 l0 27 -163 0 c-90 0 -167 -3 -170 -7z m311 -310 l-3 -288
-140 0 -140 0 -3 288 -2 287 145 0 145 0 -2 -287z"/>
<path d="M770 790 l0 -260 425 0 425 0 5 23 c3 12 4 128 3 257 l-3 235 -427 3
-428 2 0 -260z m830 0 l0 -230 -405 0 -405 0 0 223 c0 123 3 227 7 230 3 4
186 7 405 7 l398 0 0 -230z"/>
</g>
</svg>
