<?xml version="1.0" standalone="no"?>
<!DOCTYPE svg PUBLIC "-//W3C//DTD SVG 20010904//EN"
 "http://www.w3.org/TR/2001/REC-SVG-20010904/DTD/svg10.dtd">
<svg version="1.0" xmlns="http://www.w3.org/2000/svg"
 width="250.000000pt" height="250.000000pt" viewBox="0 0 217.000000 232.000000"
 preserveAspectRatio="xMidYMid meet">

<g transform="translate(0.000000,232.000000) scale(0.100000,-0.100000)"
fill="#000000" stroke="none">
<path d="M1590 1679 c-85 -48 -159 -89 -164 -91 -5 -2 -11 -22 -15 -43 -6 -40
-7 -40 -51 -39 -64 2 -110 8 -110 15 0 4 -9 9 -20 12 -14 4 -20 0 -20 -13 0
-22 39 -33 59 -17 12 10 14 9 8 -5 -5 -14 0 -19 21 -24 15 -3 34 -8 43 -10 9
-3 35 -1 57 4 l39 9 83 -144 83 -144 -39 -39 -39 -39 -132 99 c-153 114 -284
185 -313 170 -10 -6 -32 -10 -49 -10 -22 0 -37 -9 -56 -34 -14 -19 -42 -42
-61 -51 -34 -16 -74 -13 -74 6 0 18 58 124 76 141 28 24 140 58 217 65 69 6
73 8 58 32 -11 17 -84 8 -200 -26 -91 -26 -118 -25 -187 8 -30 14 -43 27 -47
47 -5 23 -30 40 -159 112 -84 47 -162 85 -173 85 -19 0 -20 -8 -23 -277 l-2
-277 43 -25 c24 -15 55 -26 69 -26 18 0 33 -11 51 -37 21 -31 25 -45 20 -80
-6 -48 12 -87 47 -98 11 -3 23 -17 26 -30 7 -28 41 -60 74 -70 14 -4 37 -20
52 -36 16 -17 37 -29 53 -29 16 0 36 -11 53 -31 33 -37 83 -43 113 -12 20 19
21 19 72 2 92 -32 180 -19 207 31 6 11 19 20 29 20 26 0 71 38 71 60 0 12 10
21 30 25 32 7 70 47 70 75 0 9 11 22 24 28 36 16 60 57 53 90 -8 39 52 98 95
93 17 -1 46 8 73 24 l45 26 0 273 c0 207 -3 276 -12 284 -9 7 -57 -16 -168
-79z m-765 -216 c22 -8 41 -16 42 -17 2 -1 -10 -29 -26 -62 -54 -112 -47 -144
30 -144 49 0 88 19 122 59 16 20 40 34 68 40 37 8 49 6 93 -16 66 -33 147 -88
269 -181 98 -76 114 -101 85 -130 -23 -23 -57 -12 -153 48 -53 33 -103 60
-111 60 -37 0 -5 -31 96 -93 61 -38 110 -72 110 -78 0 -15 -39 -49 -56 -49 -8
0 -58 25 -110 55 -88 51 -114 59 -114 35 0 -5 39 -32 88 -61 48 -29 89 -54 91
-56 2 -1 -1 -14 -7 -28 -16 -35 -48 -32 -132 10 -38 19 -77 35 -86 35 -32 0
-7 -26 59 -60 37 -19 67 -41 67 -48 0 -7 -17 -20 -37 -28 -34 -15 -43 -14
-101 1 -51 14 -62 21 -56 34 26 60 11 105 -41 127 -25 10 -34 21 -37 41 -2 18
-14 35 -35 48 -18 11 -35 32 -38 47 -13 53 -78 83 -126 57 -15 -8 -25 -6 -46
10 -32 26 -49 26 -89 2 l-30 -18 -23 33 c-13 18 -21 37 -18 41 2 4 44 77 92
161 69 118 92 151 104 146 9 -4 34 -13 56 -21z m-112 -370 c7 -7 53 -12 101
-12 34 -1 56 -17 56 -41 0 -22 -107 -170 -123 -170 -22 0 -57 31 -57 49 0 10
7 24 15 31 8 7 15 18 15 25 0 23 -28 24 -42 3 -12 -18 -17 -19 -35 -9 -30 16
-37 45 -19 80 22 42 69 65 89 44z m215 -119 c12 -8 22 -23 22 -33 0 -23 -85
-141 -102 -141 -17 0 -48 31 -48 48 0 16 87 142 98 142 4 0 18 -7 30 -16z m83
-94 c30 -17 24 -61 -15 -106 -31 -36 -35 -38 -60 -26 -41 18 -41 37 -1 92 39
53 45 56 76 40z"/>
<path d="M737 1073 c-14 -13 -6 -21 16 -17 l22 5 -22 -10 c-24 -11 -30 -26
-13 -36 5 -3 17 6 26 21 15 22 15 27 3 35 -17 11 -24 11 -32 2z"/>
<path d="M710 1018 c0 -18 18 -34 28 -24 3 4 -2 14 -11 23 -16 16 -17 16 -17
1z"/>
</g>
</svg>
